<svg width="384" height="384" viewBox="0 0 384 384" fill="none" xmlns="http://www.w3.org/2000/svg">
<path opacity="0.6" d="M179.239 21.1353H36.4375C29.8101 21.1353 24.4375 26.5078 24.4375 33.1352V138.267C24.4375 144.894 29.8101 150.267 36.4375 150.267H179.239C185.867 150.267 191.239 144.894 191.239 138.267V33.1353C191.239 26.5078 185.867 21.1353 179.239 21.1353Z" fill="#E6EFF0"/>
<path opacity="0.6" d="M343.876 21.1353H219.368C212.741 21.1353 207.368 26.5078 207.368 33.1353V76.4351C207.368 83.0625 212.741 88.4351 219.368 88.4351H343.876C350.504 88.4351 355.876 83.0625 355.876 76.4351V33.1353C355.876 26.5078 350.504 21.1353 343.876 21.1353Z" fill="#E6EFF0"/>
<path opacity="0.6" d="M340.489 101.53H293.694C287.067 101.53 281.694 106.902 281.694 113.53V176.444C281.694 183.072 287.067 188.444 293.694 188.444H340.489C347.116 188.444 352.489 183.072 352.489 176.444V113.53C352.489 106.902 347.116 101.53 340.489 101.53Z" fill="#E6EFF0"/>
<path d="M100.808 193.951C100.147 193.951 99.51 194.012 98.8956 194.127C98.9878 191.37 98.6038 189.335 98.6038 189.335H68.4444C68.4444 189.335 65.0345 209.034 83.6969 209.034C90.0867 209.034 93.8499 206.722 96.031 203.689C97.3212 204.442 98.9801 204.887 100.8 204.887C105.04 204.887 108.357 202.483 108.357 199.419C108.357 196.354 105.04 193.951 100.808 193.951ZM100.808 201.807C99.4793 201.807 98.3273 201.469 97.5286 200.986C98.0201 199.795 98.358 198.566 98.5654 197.376C99.2182 197.161 99.9785 197.023 100.808 197.023C103.373 197.023 105.293 198.29 105.293 199.419C105.293 200.548 103.373 201.807 100.808 201.807Z" fill="#F59A28"/>
<path d="M333.627 209.027H56.7939V218.565H333.627V209.027Z" fill="#358F94"/>
<path d="M73.5821 218.565L49.9124 361.621H56.7936L80.8704 218.565H73.5821Z" fill="#358F94"/>
<path d="M317.668 218.565L338.749 361.621H331.937L310.595 218.565H317.668Z" fill="#358F94"/>
<path d="M333.626 218.949H56.7932C56.5781 218.949 56.4092 218.78 56.4092 218.565C56.4092 218.35 56.5781 218.181 56.7932 218.181H333.626C333.842 218.181 334.01 218.35 334.01 218.565C334.01 218.78 333.842 218.949 333.626 218.949Z" fill="#247478"/>
<path d="M60.8794 102.397H47.8234V115.453H60.8794V102.397Z" fill="#358F94"/>
<path d="M103.672 92.8818H90.6163V115.461H103.672V92.8818Z" fill="#358F94"/>
<path d="M125.061 87.3984H112.005V115.461H125.061V87.3984Z" fill="#358F94"/>
<path d="M146.458 74.4729H133.402V115.461H146.458V74.4729Z" fill="#358F94"/>
<path d="M167.854 50.427H154.798V115.454H167.854V50.427Z" fill="#358F94"/>
<path d="M82.2758 74.4729H69.2198V115.461H82.2758V74.4729Z" fill="#358F94"/>
<path d="M60.8793 121.905H47.8233C47.6083 121.905 47.4393 121.736 47.4393 121.521C47.4393 121.306 47.6083 121.137 47.8233 121.137H60.8793C61.0944 121.137 61.2633 121.306 61.2633 121.521C61.2633 121.736 61.0944 121.905 60.8793 121.905Z" fill="#358F94"/>
<path d="M82.2758 121.905H69.2198C69.0048 121.905 68.8358 121.736 68.8358 121.521C68.8358 121.306 69.0048 121.137 69.2198 121.137H82.2758C82.4909 121.137 82.6598 121.306 82.6598 121.521C82.6598 121.736 82.4909 121.905 82.2758 121.905Z" fill="#358F94"/>
<path d="M103.672 121.905H90.6163C90.4013 121.905 90.2323 121.736 90.2323 121.521C90.2323 121.306 90.4013 121.137 90.6163 121.137H103.672C103.887 121.137 104.056 121.306 104.056 121.521C104.056 121.736 103.88 121.905 103.672 121.905Z" fill="#358F94"/>
<path d="M125.069 121.905H112.013C111.798 121.905 111.629 121.736 111.629 121.521C111.629 121.306 111.798 121.137 112.013 121.137H125.069C125.284 121.137 125.453 121.306 125.453 121.521C125.453 121.736 125.276 121.905 125.069 121.905Z" fill="#358F94"/>
<path d="M146.465 121.905H133.409C133.194 121.905 133.025 121.736 133.025 121.521C133.025 121.306 133.194 121.137 133.409 121.137H146.465C146.68 121.137 146.849 121.306 146.849 121.521C146.849 121.736 146.673 121.905 146.465 121.905Z" fill="#358F94"/>
<path d="M167.854 121.905H154.798C154.583 121.905 154.414 121.736 154.414 121.521C154.414 121.306 154.583 121.137 154.798 121.137H167.854C168.069 121.137 168.238 121.306 168.238 121.521C168.238 121.736 168.069 121.905 167.854 121.905Z" fill="#358F94"/>
<path d="M102.297 71.4471C102.251 71.4471 102.213 71.4471 102.167 71.4471C92.513 71.3549 89.4717 68.4288 86.2461 65.3415C83.0052 62.2311 79.6644 59.0132 69.1735 57.9994C58.3677 56.9472 50.6877 60.6106 46.1412 63.8669C41.2106 67.3997 38.8145 71.232 38.7837 71.2704C38.6762 71.4548 38.4381 71.5085 38.2538 71.3933C38.0772 71.2781 38.0157 71.0477 38.1309 70.8634C38.2308 70.7021 40.6193 66.8775 45.665 63.2602C50.3191 59.9194 58.1758 56.1639 69.2426 57.2391C79.9946 58.2836 83.5965 61.7396 86.7684 64.7962C90.0093 67.9066 92.8125 70.6023 102.159 70.6944C109.148 70.7636 114.532 64.9191 120.768 58.153C131.005 47.04 143.746 33.216 169.528 41.5719C169.728 41.6333 169.843 41.856 169.774 42.0557C169.712 42.2554 169.497 42.3706 169.29 42.3015C143.977 34.0916 131.95 47.1476 121.336 58.6676C115.023 65.5104 109.563 71.4471 102.297 71.4471Z" fill="#358F94"/>
<path d="M228.058 71.0783C228.05 71.0783 228.043 71.0783 228.027 71.0783C227.812 71.063 227.659 70.8786 227.674 70.6713C227.682 70.5407 227.92 67.4149 229.202 64.2431C230.93 59.9577 233.749 57.6921 237.335 57.6921C241.843 57.6921 244.209 59.7196 246.505 61.678C248.502 63.3829 250.384 64.9957 253.594 64.9957C256.151 64.9957 258.632 61.4553 261.512 57.3541C266.258 50.5881 272.156 42.1785 282.517 42.1785C292.531 42.1785 296.087 50.0965 298.944 56.4556C300.926 60.8716 302.646 64.6886 305.941 64.6886C309.681 64.6886 311.463 63.0297 313.521 61.1097C315.971 58.8287 318.736 56.2406 325.417 56.2406C337.636 56.2406 339.172 67.8527 339.187 67.9679C339.211 68.1753 339.065 68.3673 338.85 68.398C338.642 68.4287 338.45 68.2751 338.419 68.0601C338.366 67.607 336.945 57.0086 325.417 57.0086C319.043 57.0086 316.501 59.374 314.043 61.6703C311.954 63.6133 309.988 65.4566 305.941 65.4566C302.147 65.4566 300.334 61.4322 298.245 56.7705C295.335 50.2885 292.032 42.9465 282.517 42.9465C272.563 42.9465 266.78 51.1794 262.142 57.7996C259.016 62.254 256.551 65.7637 253.594 65.7637C250.1 65.7637 248.018 63.982 246.006 62.2617C243.825 60.3954 241.567 58.4601 237.335 58.4601C229.425 58.4601 228.45 70.6098 228.442 70.7327C228.427 70.9247 228.258 71.0783 228.058 71.0783Z" fill="#358F94"/>
<path d="M282.371 62.4076C273.393 62.4076 270.19 60.5106 263.808 56.7244C261.174 55.1654 257.895 53.2146 253.425 50.9644C238.764 43.5686 230.208 50.0966 230.124 50.1657C229.955 50.2962 229.717 50.2655 229.586 50.1042C229.456 49.9353 229.486 49.6972 229.648 49.5666C229.732 49.4975 238.649 42.6546 253.771 50.2886C258.263 52.5542 261.558 54.5126 264.2 56.0793C270.459 59.7964 273.6 61.655 282.371 61.655C287.278 61.655 293.899 58.5215 300.91 55.2038C311.655 50.1196 323.828 44.3596 332.729 48.7679C332.921 48.8601 332.998 49.0905 332.905 49.2825C332.813 49.4745 332.583 49.5513 332.391 49.4591C323.828 45.2198 311.831 50.8953 301.241 55.9026C294.144 59.2434 287.447 62.4076 282.371 62.4076Z" fill="#358F94"/>
<path d="M239.477 49.5821C241.047 49.5821 242.319 48.3099 242.319 46.7405C242.319 45.1712 241.047 43.8989 239.477 43.8989C237.908 43.8989 236.636 45.1712 236.636 46.7405C236.636 48.3099 237.908 49.5821 239.477 49.5821Z" fill="#358F94"/>
<path d="M282.071 45.3966C283.64 45.3966 284.913 44.1244 284.913 42.555C284.913 40.9856 283.64 39.7134 282.071 39.7134C280.502 39.7134 279.229 40.9856 279.229 42.555C279.229 44.1244 280.502 45.3966 282.071 45.3966Z" fill="#358F94"/>
<path d="M324.58 50.4652C326.149 50.4652 327.421 49.193 327.421 47.6236C327.421 46.0542 326.149 44.782 324.58 44.782C323.01 44.782 321.738 46.0542 321.738 47.6236C321.738 49.193 323.01 50.4652 324.58 50.4652Z" fill="#358F94"/>
<path d="M342.021 78.697H218.596C218.381 78.697 218.212 78.528 218.212 78.313C218.212 78.0979 218.381 77.929 218.596 77.929H342.021C342.236 77.929 342.405 78.0979 342.405 78.313C342.405 78.528 342.236 78.697 342.021 78.697Z" fill="#216468"/>
<path d="M332.728 168.945H301.455C301.24 168.945 301.071 168.776 301.071 168.561C301.071 168.346 301.24 168.177 301.455 168.177H332.728C332.943 168.177 333.112 168.346 333.112 168.561C333.112 168.776 332.943 168.945 332.728 168.945Z" fill="#247478"/>
<path d="M329.626 174.321H303.675C303.46 174.321 303.291 174.152 303.291 173.937C303.291 173.722 303.46 173.553 303.675 173.553H329.626C329.841 173.553 330.01 173.722 330.01 173.937C330.01 174.152 329.841 174.321 329.626 174.321Z" fill="#247478"/>
<path d="M316.194 153.4C325.78 153.4 333.551 145.629 333.551 136.044C333.551 126.458 325.78 118.687 316.194 118.687C306.608 118.687 298.837 126.458 298.837 136.044C298.837 145.629 306.608 153.4 316.194 153.4Z" fill="#358F94"/>
<path d="M316.193 136.043V118.687C320.64 118.587 324.587 120.361 328.166 123.479L316.193 136.043Z" fill="#216468"/>
<path d="M332.89 140.797L316.193 136.043L328.166 123.479C333.366 128.763 334.403 134.607 332.89 140.797Z" fill="white"/>
<path d="M304.927 122.842L316.193 136.044V118.687C311.616 118.764 307.922 120.253 304.927 122.842Z" fill="#358F94"/>
<path d="M344.095 151.795H329.626C329.457 151.795 329.311 151.688 329.257 151.534L327.099 144.922C327.03 144.722 327.145 144.507 327.345 144.438C327.552 144.369 327.767 144.484 327.829 144.684L329.902 151.027H344.095C344.31 151.027 344.479 151.196 344.479 151.411C344.479 151.626 344.31 151.795 344.095 151.795Z" fill="#247478"/>
<path d="M328.719 130.775C328.673 130.775 328.619 130.767 328.573 130.744C328.381 130.66 328.289 130.437 328.366 130.245L331.561 122.657C331.622 122.511 331.761 122.419 331.914 122.419H344.294C344.509 122.419 344.678 122.588 344.678 122.803C344.678 123.018 344.509 123.187 344.294 123.187H332.168L329.073 130.545C329.011 130.683 328.865 130.775 328.719 130.775Z" fill="#247478"/>
<path d="M311.14 122.081C311.009 122.081 310.879 122.012 310.802 121.889L307.215 115.592H290.865C290.65 115.592 290.481 115.423 290.481 115.208C290.481 114.993 290.65 114.824 290.865 114.824H307.446C307.584 114.824 307.715 114.901 307.776 115.016L311.47 121.505C311.578 121.69 311.508 121.928 311.324 122.028C311.27 122.066 311.209 122.081 311.14 122.081Z" fill="#247478"/>
<path d="M321.423 122.481C321.377 122.481 321.331 122.473 321.285 122.45C321.085 122.373 320.993 122.15 321.07 121.951L323.366 116.16C323.428 116.014 323.566 115.914 323.72 115.914H335.777C335.992 115.914 336.161 116.083 336.161 116.298C336.161 116.513 335.992 116.682 335.777 116.682H323.981L321.777 122.235C321.723 122.389 321.577 122.481 321.423 122.481Z" fill="#247478"/>
<path d="M344.095 148.869H334.188C333.972 148.869 333.804 148.7 333.804 148.485C333.804 148.27 333.972 148.101 334.188 148.101H344.095C344.31 148.101 344.479 148.27 344.479 148.485C344.479 148.7 344.31 148.869 344.095 148.869Z" fill="#247478"/>
<path d="M344.095 146.734H334.188C333.972 146.734 333.804 146.565 333.804 146.35C333.804 146.135 333.972 145.966 334.188 145.966H344.095C344.31 145.966 344.479 146.135 344.479 146.35C344.479 146.565 344.31 146.734 344.095 146.734Z" fill="#247478"/>
<path d="M344.294 120.96H334.387C334.172 120.96 334.003 120.791 334.003 120.576C334.003 120.361 334.172 120.192 334.387 120.192H344.294C344.509 120.192 344.678 120.361 344.678 120.576C344.678 120.791 344.509 120.96 344.294 120.96Z" fill="#247478"/>
<path d="M344.294 118.825H334.387C334.172 118.825 334.003 118.656 334.003 118.441C334.003 118.226 334.172 118.057 334.387 118.057H344.294C344.509 118.057 344.678 118.226 344.678 118.441C344.678 118.656 344.509 118.825 344.294 118.825Z" fill="#247478"/>
<path d="M335.785 114.47H325.878C325.663 114.47 325.494 114.301 325.494 114.086C325.494 113.871 325.663 113.702 325.878 113.702H335.785C336 113.702 336.169 113.871 336.169 114.086C336.169 114.301 335.993 114.47 335.785 114.47Z" fill="#247478"/>
<path d="M335.785 112.335H325.878C325.663 112.335 325.494 112.166 325.494 111.951C325.494 111.736 325.663 111.567 325.878 111.567H335.785C336 111.567 336.169 111.736 336.169 111.951C336.169 112.166 335.993 112.335 335.785 112.335Z" fill="#247478"/>
<path d="M300.772 113.403H290.865C290.65 113.403 290.481 113.234 290.481 113.019C290.481 112.804 290.65 112.635 290.865 112.635H300.772C300.987 112.635 301.156 112.804 301.156 113.019C301.156 113.234 300.987 113.403 300.772 113.403Z" fill="#247478"/>
<path d="M300.772 111.268H290.865C290.65 111.268 290.481 111.099 290.481 110.884C290.481 110.669 290.65 110.5 290.865 110.5H300.772C300.987 110.5 301.156 110.669 301.156 110.884C301.156 111.099 300.987 111.268 300.772 111.268Z" fill="#247478"/>
<path d="M86.8911 186.647C86.7605 186.647 86.6376 186.578 86.5608 186.463C86.4533 186.278 86.5071 186.048 86.6914 185.933C86.7528 185.894 92.9813 182.077 92.9967 178.875C92.9967 177.953 92.4744 177.178 91.3839 176.502C85.3704 172.792 84.6255 163.83 84.5948 163.453C84.5794 163.238 84.7407 163.054 84.948 163.039C85.1554 163.023 85.3474 163.185 85.3628 163.392C85.3704 163.484 86.1154 172.339 91.7909 175.841C93.1042 176.655 93.7724 177.669 93.7647 178.867C93.7493 182.5 87.3672 186.417 87.0908 186.578C87.0293 186.624 86.9602 186.647 86.8911 186.647Z" fill="#855244"/>
<path d="M83.174 186.647C82.982 186.647 82.813 186.501 82.79 186.309C82.4982 183.874 83.0895 183.137 83.6578 182.431C84.1801 181.77 84.7254 181.094 84.5948 178.652C84.3414 173.829 82.1218 172.424 82.0988 172.416C81.9222 172.308 81.8607 172.07 81.9682 171.886C82.0758 171.702 82.3138 171.648 82.4905 171.748C82.598 171.809 85.0863 173.33 85.3551 178.606C85.501 181.34 84.8329 182.169 84.2492 182.907C83.7346 183.552 83.2969 184.105 83.5426 186.217C83.5657 186.424 83.4197 186.616 83.2047 186.647C83.2047 186.647 83.1894 186.647 83.174 186.647Z" fill="#855244"/>
<path d="M81.8607 186.647C81.7839 186.647 81.7071 186.624 81.638 186.57C76.3157 182.715 78.973 176.671 79.0037 176.609C79.0882 176.417 79.3186 176.333 79.5106 176.417C79.7026 176.502 79.7871 176.732 79.7026 176.924C79.6028 177.147 77.2834 182.461 82.0911 185.948C82.26 186.071 82.2984 186.309 82.1756 186.486C82.0988 186.586 81.9836 186.647 81.8607 186.647Z" fill="#855244"/>
<path d="M239.576 310.057H147.677V301.371H240.812L239.576 310.057Z" fill="black"/>
<path d="M224.93 264.415C224.93 264.415 161.301 264.415 148.852 264.415C136.41 264.415 136.279 256.113 150.464 254.039C164.649 251.973 223.962 244.554 224.93 264.415Z" fill="black"/>
<path d="M131.788 167.485C131.788 167.485 129.269 178.568 128.255 186.724C127.241 194.88 124.807 209.026 135.559 209.026C146.311 209.026 233.079 209.026 240.89 209.026C248.708 209.026 250.743 207.452 249.891 200.655C249.038 193.858 237.319 176.194 237.319 176.194L131.788 167.485Z" fill="#DEB692"/>
<path d="M142.225 144.983C142.225 144.983 137.494 136.666 144.329 131.935C151.157 127.204 152.385 127.734 152.646 118.802C152.908 109.87 158.683 103.818 166.924 105.231C166.924 105.231 164.381 86.6687 182.076 85.9622C199.763 85.2633 201.107 97.559 199.74 103.841C198.373 110.123 169.304 133.348 169.304 133.348L142.225 144.983Z" fill="black"/>
<path d="M237.378 209.027L256.932 156.081H197.273L180.086 204.88H146.301V209.027H237.378Z" fill="black"/>
<path d="M169.296 133.348C169.296 133.348 139.459 131.32 131.787 167.485L157.814 172.877L150.541 191.048L184.087 193.521L197.274 156.081H224.93C224.93 156.081 217.411 137.556 188.841 134.423L169.296 133.348Z" fill="#F59A28"/>
<path d="M199.724 103.841C199.724 103.841 206.706 126.92 188.834 129.155V139.484C188.834 139.484 183.619 143.393 176.362 140.137C169.104 136.881 169.289 133.34 169.289 133.34L171.239 112.773C171.239 112.773 166.962 111.099 168.167 106.629C169.381 102.159 174.964 103.742 175.148 106.629C175.148 106.629 187.06 106.445 192.367 97.9739C192.375 97.9816 195.723 102.075 199.724 103.841Z" fill="#DEB692"/>
<path d="M140.535 218.565C140.535 218.565 134.476 238.625 147.639 251.581C160.803 264.538 179.819 260.567 179.819 260.567L177.1 342.689H213.042L214.924 258.685L218.533 342.689H251.312C251.312 342.689 252.917 285.565 252.686 266.773C252.456 247.98 254.752 220.57 220.139 218.573H140.535V218.565Z" fill="#216468"/>
<path d="M152.708 264.415L131.788 361.621H139.145L152.316 309.189L163.567 264.415" fill="black"/>
<path d="M225.444 342.682H244.752V352.988H225.444V342.682Z" fill="#DEB692"/>
<path d="M225.445 362.45H254.959C254.959 362.45 256.772 360.983 254.959 359.432C253.147 357.88 244.745 352.988 244.745 352.988H225.437V362.45H225.445Z" fill="black"/>
<path d="M184.849 342.682H204.156V352.988H184.849V342.682Z" fill="#DEB692"/>
<path d="M184.856 362.45H214.378C214.378 362.45 216.191 360.983 214.378 359.432C212.566 357.88 204.164 352.988 204.164 352.988H184.856V362.45Z" fill="black"/>
<path d="M213.042 343.065C213.249 343.065 213.418 342.896 213.426 342.689C213.449 341.806 215.653 254.292 215.561 243.648C215.461 231.383 209.77 218.181 197.528 218.181C197.313 218.181 197.144 218.35 197.144 218.565C197.144 218.78 197.313 218.949 197.528 218.949C209.248 218.949 214.693 231.759 214.793 243.655C214.885 254.285 212.681 341.791 212.658 342.674C212.65 342.889 212.819 343.065 213.034 343.065H213.042Z" fill="#247478"/>
<path d="M177.099 343.066C177.306 343.066 177.475 342.904 177.483 342.697L180.593 249.992C180.601 249.777 180.432 249.6 180.225 249.592C180.041 249.577 179.833 249.754 179.825 249.961L176.715 342.666C176.707 342.881 176.876 343.058 177.084 343.066C177.091 343.066 177.099 343.066 177.099 343.066Z" fill="#247478"/>
<path d="M157.814 173.261C157.968 173.261 158.114 173.169 158.175 173.015L161.731 163.561C161.808 163.361 161.708 163.138 161.508 163.069C161.309 162.993 161.086 163.092 161.017 163.292L157.461 172.746C157.384 172.946 157.484 173.169 157.684 173.238C157.722 173.253 157.768 173.261 157.814 173.261Z" fill="#1B3C0F"/>
<path d="M184.088 193.905C184.287 193.905 184.456 193.751 184.472 193.551C184.487 193.336 184.326 193.152 184.118 193.137L145.519 190.28C145.304 190.264 145.119 190.426 145.104 190.633C145.089 190.848 145.25 191.032 145.457 191.048L184.057 193.905C184.072 193.905 184.08 193.905 184.088 193.905Z" fill="#855244"/>
<path d="M188.841 129.162L188.849 134.423C181.806 133.279 177.805 129.093 176.138 122.581C179.932 127.089 184.079 129.761 188.841 129.162Z" fill="#855244"/>
<path d="M194.524 115.622C194.578 115.622 194.624 115.615 194.678 115.592L196.89 114.624C197.066 114.547 197.159 114.347 197.105 114.155L194.947 107.22C194.885 107.021 194.67 106.906 194.463 106.967C194.263 107.028 194.148 107.243 194.209 107.451L196.26 114.056L194.363 114.885C194.171 114.97 194.079 115.2 194.163 115.392C194.233 115.538 194.378 115.622 194.524 115.622Z" fill="black"/>
<path d="M192.812 118.725C192.881 118.725 192.95 118.725 193.02 118.717C193.227 118.694 193.388 118.51 193.365 118.295C193.342 118.08 193.15 117.934 192.943 117.949C192.651 117.98 192.413 117.919 192.221 117.757C191.752 117.366 191.683 116.544 191.683 116.536C191.668 116.329 191.484 116.16 191.269 116.183C191.061 116.198 190.9 116.383 190.915 116.59C190.915 116.636 191.007 117.742 191.722 118.341C192.029 118.595 192.39 118.725 192.812 118.725Z" fill="black"/>
<path d="M187.398 111.529C186.728 111.529 186.184 110.986 186.184 110.315C186.184 109.645 186.728 109.102 187.398 109.102C188.068 109.102 188.611 109.645 188.611 110.315C188.611 110.986 188.068 111.529 187.398 111.529Z" fill="black"/>
<path d="M183.657 106.36C183.772 106.36 183.88 106.314 183.957 106.214C185.485 104.294 187.797 104.678 187.889 104.694C188.096 104.724 188.296 104.594 188.334 104.386C188.373 104.179 188.235 103.979 188.027 103.941C187.912 103.918 185.178 103.442 183.35 105.738C183.22 105.907 183.243 106.145 183.412 106.276C183.488 106.337 183.573 106.36 183.657 106.36Z" fill="black"/>
<path d="M199.939 105.254C200.024 105.254 200.108 105.224 200.177 105.17C200.339 105.039 200.369 104.801 200.239 104.632C199.747 104.018 198.349 103.096 196.529 104.003C196.337 104.095 196.261 104.325 196.36 104.517C196.453 104.709 196.683 104.786 196.875 104.686C198.58 103.834 199.601 105.055 199.64 105.108C199.717 105.208 199.824 105.254 199.939 105.254Z" fill="black"/>
<path d="M185.025 110.784C185.132 110.784 185.232 110.738 185.309 110.661C186.062 109.832 186.837 109.394 187.605 109.356C188.527 109.31 189.141 109.878 189.149 109.886C189.302 110.031 189.548 110.016 189.694 109.862C189.84 109.709 189.832 109.463 189.679 109.325C189.648 109.294 188.849 108.549 187.59 108.588C186.599 108.626 185.647 109.148 184.741 110.147C184.595 110.3 184.61 110.546 184.764 110.692C184.84 110.753 184.933 110.784 185.025 110.784Z" fill="black"/>
<path d="M198.726 110.254C198.056 110.254 197.512 109.711 197.512 109.041C197.512 108.37 198.056 107.827 198.726 107.827C199.396 107.827 199.939 108.37 199.939 109.041C199.939 109.711 199.396 110.254 198.726 110.254Z" fill="black"/>
<path d="M196.353 109.509C196.46 109.509 196.56 109.463 196.637 109.386C197.39 108.557 198.165 108.119 198.933 108.081C199.855 108.034 200.469 108.603 200.477 108.611C200.63 108.756 200.876 108.741 201.022 108.587C201.168 108.434 201.16 108.188 201.007 108.05C200.976 108.019 200.162 107.266 198.918 107.313C197.927 107.351 196.975 107.873 196.069 108.872C195.923 109.025 195.938 109.271 196.092 109.417C196.168 109.471 196.261 109.509 196.353 109.509Z" fill="black"/>
<path d="M173.075 109.355C173.251 109.355 173.405 109.24 173.451 109.064C173.466 109.01 173.781 107.643 173.067 106.621C172.668 106.045 172.03 105.7 171.185 105.6C170.978 105.569 170.786 105.723 170.755 105.938C170.732 106.145 170.878 106.337 171.093 106.368C171.708 106.445 172.161 106.675 172.437 107.059C172.952 107.796 172.706 108.879 172.706 108.895C172.66 109.102 172.783 109.309 172.99 109.355C173.013 109.355 173.044 109.355 173.075 109.355Z" fill="#855244"/>
</svg>
